<svg id="Layer_1" data-name="Layer 1" xmlns="http://www.w3.org/2000/svg" xmlns:xlink="http://www.w3.org/1999/xlink" viewBox="0 0 251.94 234.57"><defs><style>.cls-1{fill:#cae8fa;}.cls-2{fill:#008eae;}.cls-3{fill:#00ab92;}.cls-36,.cls-4,.cls-8{fill:none;stroke-miterlimit:10;}.cls-4{stroke:#006a88;stroke-linecap:round;}.cls-5{fill:#005d7b;}.cls-6{fill:#007696;}.cls-7{fill:#ffc900;}.cls-8{stroke:#ffc900;stroke-width:0.5px;}.cls-9{fill:#00446b;}.cls-10{fill:#293036;}.cls-11{fill:#00b6ec;}.cls-12{fill:#939597;}.cls-13{fill:#d0d3d4;}.cls-14{fill:#bcbec0;}.cls-15{fill:#f1f2f2;}.cls-16{fill:#004d79;}.cls-17{fill:#003b58;}.cls-18{fill:#e6bea6;}.cls-19{fill:#e5ae8a;}.cls-20{fill:url(#linear-gradient);}.cls-21{fill:#a56052;}.cls-22{fill:url(#linear-gradient-2);}.cls-23{fill:#64361a;}.cls-24{fill:#023b44;}.cls-25{fill:url(#linear-gradient-3);}.cls-26{fill:#f2a09b;}.cls-27{fill:#46271e;}.cls-28{fill:#dbdbdb;}.cls-29{fill:#abadad;}.cls-30{fill:#eee;}.cls-31{fill:#dfb091;}.cls-32{fill:#fff;}.cls-33{fill:#e8e8e8;}.cls-34{fill:#dd9c79;}.cls-35{fill:#dd9677;}.cls-36{stroke:#008eae;}</style><linearGradient id="linear-gradient" x1="361.78" y1="172.73" x2="357.22" y2="175.56" gradientTransform="translate(-154.06 -26.87) rotate(14.55)" gradientUnits="userSpaceOnUse"><stop offset="0" stop-color="#d18178"/><stop offset="1" stop-color="#f6b9ad" stop-opacity="0"/></linearGradient><linearGradient id="linear-gradient-2" x1="348.92" y1="167.06" x2="350.81" y2="173.49" gradientTransform="translate(-154.06 -26.87) rotate(14.55)" gradientUnits="userSpaceOnUse"><stop offset="0" stop-color="#d89a68"/><stop offset="1" stop-color="#d89a68" stop-opacity="0"/></linearGradient><linearGradient id="linear-gradient-3" x1="508.85" y1="125.54" x2="510.75" y2="131.97" gradientTransform="matrix(-0.97, 0.25, 0.25, 0.97, 617.22, -26.87)" xlink:href="#linear-gradient-2"/></defs><title>Untitled-1</title><path class="cls-1" d="M151.15,325.68c-17.33,1.08-18.47-11.57-28.56-12.17s-19.89,4.06-29.34,8c-33.42,13.93-48.68,2.73-45.8-16.1,3.71-24.3,17.33-42.56,7-60.51C41.77,223,42.56,202.18,57,191s45.09,4.87,57-5.42c18.62-16.09,32-35.21,57.92-33.19,9.42.74,17,6.52,20.08,20.35,5.45,24.5,7.75,36.44,23.11,43.45,8.8,4,44.91,7.4,49.13,24.73s-14.19,23.83-17.78,37.38c-2.73,10.32,7.45,34.58-12.36,50.52-15.78,12.7-28-9.29-42.72-10.68S168.49,324.59,151.15,325.68Z" transform="translate(-26.25 -141.38)"/><path class="cls-1" d="M236.67,217.73c1.7.28,30.54,5.82,33.95,22.16,1,6.68,9.64,4.89,7.1-2.84C273.76,225,259.4,219.15,236.67,217.73Z" transform="translate(-26.25 -141.38)"/><path class="cls-1" d="M172.08,148c7.2,1.09,19.23,4.54,22.81,16.84s6.93,30.34,6.93,30.34,2.39-18.51-1.79-34.52c-3.82-14.62-18.51-19.35-25.92-19.23C165.06,141.53,168.14,147.36,172.08,148Z" transform="translate(-26.25 -141.38)"/><path class="cls-1" d="M48.76,280.75C44,291,40.14,308.16,43.63,318.13c2.76,7.9,6.36,9.57,8,10.82,5.27,4,.86,12.06-6.85,5.45-7-6-10.58-18.92-7.25-31.66A56.51,56.51,0,0,1,48.76,280.75Z" transform="translate(-26.25 -141.38)"/><circle class="cls-1" cx="246.16" cy="109.73" r="2.58"/><circle class="cls-1" cx="131.94" cy="4.12" r="2.01"/><circle class="cls-1" cx="35.23" cy="193.24" r="2.87"/><path class="cls-1" d="M46.64,195.95c-5.49,7.43-9.53,23.74.48,45-13.89-13.4-15-33.77-7.91-46.34C44.05,186.1,49.87,190.78,46.64,195.95Z" transform="translate(-26.25 -141.38)"/><circle class="cls-1" cx="24.89" cy="45.73" r="3.44"/><path class="cls-2" d="M254.62,338.39c.54-1.73-1.9-6.32-4.71-7.26C250.06,334.07,252.7,337.71,254.62,338.39Z" transform="translate(-26.25 -141.38)"/><path class="cls-3" d="M250.3,340.37c.95-1.85-.89-7.52-3.89-9.14C246,334.59,248.27,339.21,250.3,340.37Z" transform="translate(-26.25 -141.38)"/><path class="cls-2" d="M245.72,343.54c1.33-2.3-.64-9.65-4.36-11.9C240.62,335.88,243.2,341.93,245.72,343.54Z" transform="translate(-26.25 -141.38)"/><path class="cls-3" d="M237.7,347.39c2.33-2.38,2.22-12-1.61-15.87C233.87,336.47,235.13,344.65,237.7,347.39Z" transform="translate(-26.25 -141.38)"/><path class="cls-2" d="M231.92,350.41c1.22-3.45,2-15.63-1.92-19.46C227.88,335.94,229.62,347.41,231.92,350.41Z" transform="translate(-26.25 -141.38)"/><path class="cls-3" d="M224.56,346.35c1.33-2.63,3.21-12.29.48-15.76C222.82,334.37,223,343.71,224.56,346.35Z" transform="translate(-26.25 -141.38)"/><path class="cls-2" d="M219.08,342.06c1.11-2,2.85-9.51.81-12.3C218.06,332.65,218,340,219.08,342.06Z" transform="translate(-26.25 -141.38)"/><path class="cls-3" d="M215.49,337c.66-1.41,1.5-6.54,0-8.32C214.38,330.67,214.64,335.6,215.49,337Z" transform="translate(-26.25 -141.38)"/><path class="cls-3" d="M252.82,322.63c.94,1.55-.29,6.59-2.79,8.19C249.46,327.93,251.12,323.77,252.82,322.63Z" transform="translate(-26.25 -141.38)"/><path class="cls-2" d="M249.31,321.82c1,1.8-.53,7.56-3.44,9.31C245.3,327.8,247.33,323.07,249.31,321.82Z" transform="translate(-26.25 -141.38)"/><path class="cls-3" d="M244.8,319.14c1.44,2.23-.17,9.67-3.77,12.1C240.09,327,242.36,320.87,244.8,319.14Z" transform="translate(-26.25 -141.38)"/><path class="cls-2" d="M239.19,315.76c2.07,2.61,1,12.13-3.25,15.62C234.25,326.23,236.35,318.23,239.19,315.76Z" transform="translate(-26.25 -141.38)"/><path class="cls-3" d="M234,311.57c.86,3.56.4,15.75-3.88,19.16C228.53,325.55,231.41,314.32,234,311.57Z" transform="translate(-26.25 -141.38)"/><path class="cls-2" d="M226.88,314.65c.92,2.8,1.32,12.63-1.9,15.65C223.36,326.23,225,317,226.88,314.65Z" transform="translate(-26.25 -141.38)"/><path class="cls-3" d="M223.06,317.33c.45,2.26-.16,9.93-2.95,12C219.25,326,221.36,319,223.06,317.33Z" transform="translate(-26.25 -141.38)"/><path class="cls-2" d="M218.48,320.52c.08,1.56-1.08,6.62-3.14,7.71C215.08,325.94,217.18,321.47,218.48,320.52Z" transform="translate(-26.25 -141.38)"/><path class="cls-4" d="M210,326.56c13.48,5.79,35,5.53,42.07,4.12" transform="translate(-26.25 -141.38)"/><path class="cls-2" d="M252.13,330.62c1.86.57,6.8-2.05,7.8-5.09C256.77,325.71,252.86,328.56,252.13,330.62Z" transform="translate(-26.25 -141.38)"/><path class="cls-3" d="M252.3,330.59c.79,1.78,6,3.79,9,2.55C259,330.87,254.34,329.79,252.3,330.59Z" transform="translate(-26.25 -141.38)"/><path class="cls-2" d="M61,294.38c-1.32,1.24-1.48,6.43.51,8.64C62.8,300.39,62.3,295.93,61,294.38Z" transform="translate(-26.25 -141.38)"/><path class="cls-3" d="M65.7,294.8c-1.74,1.14-2.95,7-1.14,9.86C66.57,301.95,66.9,296.81,65.7,294.8Z" transform="translate(-26.25 -141.38)"/><path class="cls-2" d="M71.25,294.31C69,295.65,67,303,69.16,306.82,71.9,303.49,72.65,297,71.25,294.31Z" transform="translate(-26.25 -141.38)"/><path class="cls-3" d="M80.13,294.92c-3.21.92-7.85,9.3-6.44,14.59C78.06,306.31,81,298.58,80.13,294.92Z" transform="translate(-26.25 -141.38)"/><path class="cls-2" d="M86.64,295.16c-2.76,2.4-9.46,12.6-8,17.86C83,309.73,87.16,298.91,86.64,295.16Z" transform="translate(-26.25 -141.38)"/><path class="cls-3" d="M91,302.33c-2.46,1.63-8.87,9.1-8.2,13.46C86.62,313.6,91.07,305.38,91,302.33Z" transform="translate(-26.25 -141.38)"/><path class="cls-2" d="M93.68,308.77c-2,1.21-7.18,6.86-6.78,10.29C89.92,317.45,93.62,311.15,93.68,308.77Z" transform="translate(-26.25 -141.38)"/><path class="cls-3" d="M94.28,315c-1.27.9-4.53,4.94-4.11,7.23C92.13,321,94.34,316.58,94.28,315Z" transform="translate(-26.25 -141.38)"/><path class="cls-3" d="M54.75,309c-.06-1.81,3.51-5.59,6.47-5.74C60.29,306,56.78,308.83,54.75,309Z" transform="translate(-26.25 -141.38)"/><path class="cls-2" d="M57.39,311.42c0-2.08,4.19-6.31,7.6-6.39C63.84,308.2,59.73,311.3,57.39,311.42Z" transform="translate(-26.25 -141.38)"/><path class="cls-3" d="M60,316c-.15-2.65,4.93-8.32,9.26-8.65C68,311.44,63,315.67,60,316Z" transform="translate(-26.25 -141.38)"/><path class="cls-2" d="M63.19,321.68c-.51-3.3,5.16-11,10.55-12C72.66,315,66.88,320.94,63.19,321.68Z" transform="translate(-26.25 -141.38)"/><path class="cls-3" d="M65.63,327.88c1-3.52,7.44-13.89,12.85-14.74C77.3,318.44,69.24,326.78,65.63,327.88Z" transform="translate(-26.25 -141.38)"/><path class="cls-2" d="M73.34,328.74c.59-2.89,5.1-11.63,9.39-12.66C82.13,320.41,76.18,327.62,73.34,328.74Z" transform="translate(-26.25 -141.38)"/><path class="cls-3" d="M78,328.29c.73-2.19,5.05-8.55,8.48-8.94C85.59,322.65,80.3,327.69,78,328.29Z" transform="translate(-26.25 -141.38)"/><path class="cls-2" d="M83.55,327.78c.7-1.39,4.21-5.22,6.54-5.15C89.18,324.76,85.15,327.61,83.55,327.78Z" transform="translate(-26.25 -141.38)"/><path class="cls-4" d="M93.9,326.73C85,315,66.17,304.6,59.37,302.35" transform="translate(-26.25 -141.38)"/><path class="cls-2" d="M59.3,302.37c-1.34-1.42-6.92-1.58-9.29.57C52.84,304.35,57.63,303.8,59.3,302.37Z" transform="translate(-26.25 -141.38)"/><path class="cls-3" d="M59.13,302.32c.2-1.94-3.35-6.26-6.52-6.65C53.4,298.74,57,302,59.13,302.32Z" transform="translate(-26.25 -141.38)"/><path class="cls-5" d="M212.37,318.59c-2.62-16.87,7.16-33.49,32.71-42.44C244.81,307.55,221.87,318.61,212.37,318.59Z" transform="translate(-26.25 -141.38)"/><path class="cls-6" d="M212.37,318.59c1-4,12-18.39,28.14-37.18C226.05,302.4,216.06,316.26,212.37,318.59Z" transform="translate(-26.25 -141.38)"/><path class="cls-6" d="M216.51,313.55c1.73-.52,4,.41,4.51,2-.15-2.92-3.76-2.7-3.76-2.7Z" transform="translate(-26.25 -141.38)"/><path class="cls-6" d="M220.23,308.69c3.3.09,5.84,1.82,6.71,3.55a6.61,6.61,0,0,0-5.86-4.74Z" transform="translate(-26.25 -141.38)"/><path class="cls-6" d="M224.9,302.45a8.16,8.16,0,0,1,7.72,4c-1.39-3.62-5-5.16-7.17-4.88A3.78,3.78,0,0,0,224.9,302.45Z" transform="translate(-26.25 -141.38)"/><path class="cls-6" d="M230.3,295.32c3.64.11,5.2.65,7.3,3.57-.91-3.06-4.93-4.95-6.52-4.72A3.11,3.11,0,0,0,230.3,295.32Z" transform="translate(-26.25 -141.38)"/><path class="cls-6" d="M234.49,289.35a6.62,6.62,0,0,1,5.21,2.32c-1.08-2.24-4.49-3-4.49-3Z" transform="translate(-26.25 -141.38)"/><path class="cls-6" d="M238.27,284.41a5.6,5.6,0,0,1,3.78,2.21c-.63-1.75-3.44-2.71-3.44-2.71Z" transform="translate(-26.25 -141.38)"/><path class="cls-6" d="M215.9,313.15c0-1.8-1.46-3.73-3.17-3.8,2.86-.64,3.61,2.9,3.61,2.9Z" transform="translate(-26.25 -141.38)"/><path class="cls-6" d="M219.58,308.26c-1-3.15-3.32-5.14-5.23-5.51a6.61,6.61,0,0,1,6.14,4.37Z" transform="translate(-26.25 -141.38)"/><path class="cls-6" d="M224.34,302.09a8.16,8.16,0,0,0-5.91-6.37c3.86.36,6.32,3.45,6.62,5.59A3.78,3.78,0,0,1,224.34,302.09Z" transform="translate(-26.25 -141.38)"/><path class="cls-6" d="M229.75,295c-1.09-3.48-2-4.84-5.4-6.08,3.19.05,6.09,3.42,6.3,5A3.11,3.11,0,0,1,229.75,295Z" transform="translate(-26.25 -141.38)"/><path class="cls-6" d="M234.38,289.34a6.62,6.62,0,0,0-3.64-4.39c2.45.43,4.13,3.51,4.13,3.51Z" transform="translate(-26.25 -141.38)"/><path class="cls-6" d="M238.12,284.37a5.6,5.6,0,0,0-3.15-3c1.86.13,3.53,2.59,3.53,2.59Z" transform="translate(-26.25 -141.38)"/><path class="cls-2" d="M209.84,325.39c3.61-16.68,18.71-28.69,45.77-27.87C244.08,326.73,218.7,328.81,209.84,325.39Z" transform="translate(-26.25 -141.38)"/><path class="cls-6" d="M209.84,325.39c2.35-3.37,17.82-12.85,39.61-24.6C228.42,315.18,214.12,324.54,209.84,325.39Z" transform="translate(-26.25 -141.38)"/><path class="cls-6" d="M215.52,322.17c1.8.14,3.58,1.81,3.48,3.51.91-2.78-2.54-3.87-2.54-3.87Z" transform="translate(-26.25 -141.38)"/><path class="cls-6" d="M220.74,319c3,1.26,4.8,3.79,5,5.73a6.61,6.61,0,0,0-3.76-6.53Z" transform="translate(-26.25 -141.38)"/><path class="cls-6" d="M227.33,314.82a8.16,8.16,0,0,1,5.78,6.49c0-3.88-2.83-6.62-4.94-7.13A3.78,3.78,0,0,0,227.33,314.82Z" transform="translate(-26.25 -141.38)"/><path class="cls-6" d="M234.93,310.1c3.36,1.41,4.62,2.48,5.54,6,.25-3.19-2.83-6.39-4.39-6.75A3.11,3.11,0,0,0,234.93,310.1Z" transform="translate(-26.25 -141.38)"/><path class="cls-6" d="M241,306a6.62,6.62,0,0,1,4,4c-.2-2.48-3.11-4.44-3.11-4.44Z" transform="translate(-26.25 -141.38)"/><path class="cls-6" d="M246.29,302.78a5.6,5.6,0,0,1,2.73,3.42c0-1.86-2.24-3.76-2.24-3.76Z" transform="translate(-26.25 -141.38)"/><path class="cls-6" d="M215.09,321.58c.68-1.67,0-4-1.59-4.68,2.9.43,2.33,4,2.33,4Z" transform="translate(-26.25 -141.38)"/><path class="cls-6" d="M220.28,318.34c.23-3.29-1.25-6-2.9-7a6.61,6.61,0,0,1,4.16,6.28Z" transform="translate(-26.25 -141.38)"/><path class="cls-6" d="M226.94,314.28a8.16,8.16,0,0,0-3.23-8.07c3.48,1.72,4.66,5.49,4.17,7.6A3.78,3.78,0,0,1,226.94,314.28Z" transform="translate(-26.25 -141.38)"/><path class="cls-6" d="M234.55,309.59c.23-3.64-.16-5.24-2.86-7.61,3,1.19,4.45,5.38,4.08,6.94A3.11,3.11,0,0,1,234.55,309.59Z" transform="translate(-26.25 -141.38)"/><path class="cls-6" d="M240.89,306a6.62,6.62,0,0,0-1.82-5.41c2.13,1.28,2.59,4.76,2.59,4.76Z" transform="translate(-26.25 -141.38)"/><path class="cls-6" d="M246.16,302.69a5.6,5.6,0,0,0-1.85-4c1.69.79,2.37,3.68,2.37,3.68Z" transform="translate(-26.25 -141.38)"/><path class="cls-2" d="M95.12,322.5c-8.2,15-26.09,22.19-51.8,13.72C62.67,311.49,87.59,316.7,95.12,322.5Z" transform="translate(-26.25 -141.38)"/><path class="cls-6" d="M95.12,322.5c-3.21,2.57-20.74,7.26-45,12.34C74.4,327,90.77,322.1,95.12,322.5Z" transform="translate(-26.25 -141.38)"/><path class="cls-6" d="M88.76,324c-1.69-.64-2.91-2.75-2.34-4.36-1.66,2.41,1.34,4.43,1.34,4.43Z" transform="translate(-26.25 -141.38)"/><path class="cls-6" d="M82.85,325.56c-2.56-2.08-3.53-5-3.16-6.91A6.61,6.61,0,0,0,81.45,326Z" transform="translate(-26.25 -141.38)"/><path class="cls-6" d="M75.34,327.67a8.16,8.16,0,0,1-3.7-7.86c-1.11,3.72.84,7.15,2.71,8.23A3.78,3.78,0,0,0,75.34,327.67Z" transform="translate(-26.25 -141.38)"/><path class="cls-6" d="M66.72,330c-2.82-2.31-3.73-3.69-3.62-7.28-1.15,3,.9,6.93,2.29,7.72A3.1,3.1,0,0,0,66.72,330Z" transform="translate(-26.25 -141.38)"/><path class="cls-6" d="M59.76,332.21a6.62,6.62,0,0,1-2.72-5c-.51,2.43,1.72,5.14,1.72,5.14Z" transform="translate(-26.25 -141.38)"/><path class="cls-6" d="M53.75,333.83a5.6,5.6,0,0,1-1.65-4.06c-.57,1.77,1.08,4.24,1.08,4.24Z" transform="translate(-26.25 -141.38)"/><path class="cls-6" d="M89,324.66c-1.13,1.41-1.11,3.85.2,4.94-2.66-1.23-1.1-4.5-1.1-4.5Z" transform="translate(-26.25 -141.38)"/><path class="cls-6" d="M83.11,326.3c-1.15,3.09-.5,6.1.79,7.56a6.61,6.61,0,0,1-2.21-7.2Z" transform="translate(-26.25 -141.38)"/><path class="cls-6" d="M75.57,328.29a8.16,8.16,0,0,0,.81,8.65c-2.84-2.64-2.91-6.59-1.84-8.47A3.78,3.78,0,0,1,75.57,328.29Z" transform="translate(-26.25 -141.38)"/><path class="cls-6" d="M66.94,330.63c-1.26,3.42-1.34,5.07.58,8.11-2.5-2-2.74-6.43-1.94-7.81A3.11,3.11,0,0,1,66.94,330.63Z" transform="translate(-26.25 -141.38)"/><path class="cls-6" d="M59.84,332.29A6.62,6.62,0,0,0,60,338c-1.68-1.84-1.13-5.3-1.13-5.3Z" transform="translate(-26.25 -141.38)"/><path class="cls-6" d="M53.84,334a5.6,5.6,0,0,0,.64,4.33c-1.39-1.24-1.22-4.2-1.22-4.2Z" transform="translate(-26.25 -141.38)"/><path class="cls-7" d="M122.56,201.46h-5.14a2.63,2.63,0,1,1,5.14,0Z" transform="translate(-26.25 -141.38)"/><rect class="cls-7" x="91.48" y="60.08" width="0.22" height="2.3"/><rect class="cls-7" x="92.05" y="60.08" width="0.22" height="2.3"/><rect class="cls-7" x="92.62" y="60.08" width="0.22" height="2.3"/><rect class="cls-7" x="93.2" y="60.08" width="0.22" height="2.3"/><rect class="cls-7" x="93.2" y="60.08" width="0.22" height="2.3"/><rect class="cls-7" x="93.77" y="60.08" width="0.22" height="2.3"/><rect class="cls-7" x="94.34" y="60.08" width="0.22" height="2.3"/><rect class="cls-7" x="94.92" y="60.08" width="0.22" height="2.3"/><rect class="cls-7" x="95.49" y="60.08" width="0.22" height="2.3"/><rect class="cls-7" x="96.07" y="60.08" width="0.57" height="2.3"/><circle class="cls-7" cx="93.77" cy="56.64" r="0.57"/><circle class="cls-7" cx="93.48" cy="55.2" r="0.29"/><line class="cls-8" x1="93.48" y1="54.91" x2="93.48" y2="49.17"/><polygon class="cls-9" points="121.65 59.75 89.57 48.04 121.65 36.33 153.73 48.04 121.65 59.75"/><path id="_Path_" data-name="&lt;Path&gt;" class="cls-10" d="M222.18,343.23l-143.89-.11a1.9,1.9,0,0,1-1.9-1.9l.07-92.06a5.81,5.81,0,0,1,5.81-5.8l135.82.11a5.81,5.81,0,0,1,5.8,5.81l-.07,92.06a1.9,1.9,0,0,1-1.9,1.9" transform="translate(-26.25 -141.38)"/><polyline id="_Path_2" data-name="&lt;Path&gt;" class="cls-11" points="191.35 196.11 54.74 196 54.81 106.57 191.35 106.68 191.28 196.11"/><path id="_Path_3" data-name="&lt;Path&gt;" class="cls-12" d="M254.91,376l-209.53-.17A4.7,4.7,0,0,1,40.81,371v-.17l218.68.18v.17A4.7,4.7,0,0,1,254.91,376Z" transform="translate(-26.25 -141.38)"/><path id="_Path_4" data-name="&lt;Path&gt;" class="cls-13" d="M253.56,371.93l-206.88-.16c-3.76,0-5.84-.76-4.66-1.68l32.92-25.75c1.18-.93,4.17-1.68,6.67-1.67l137.59.11c2.5,0,5.47.76,6.64,1.69l32.41,25.8C259.42,371.19,257.32,371.94,253.56,371.93Z" transform="translate(-26.25 -141.38)"/><polygon id="_Path_5" data-name="&lt;Path&gt;" class="cls-14" points="163.47 228.83 84.3 228.77 89.64 218.5 158.34 218.55 163.47 228.83"/><path id="_Path_6" data-name="&lt;Path&gt;" class="cls-12" d="M90.15,346.68H83.37c-.4,0-.6-.11-.45-.25l2.59-2.36a1.73,1.73,0,0,1,1-.25H93c.38,0,.58.11.45.25l-2.3,2.36A1.65,1.65,0,0,1,90.15,346.68Z" transform="translate(-26.25 -141.38)"/><path id="_Path_7" data-name="&lt;Path&gt;" class="cls-12" d="M99.22,346.68H92.44c-.4,0-.61-.11-.48-.25l2.25-2.36a1.55,1.55,0,0,1,.93-.25h6.49c.38,0,.6.11.48.25l-2,2.36A1.47,1.47,0,0,1,99.22,346.68Z" transform="translate(-26.25 -141.38)"/><path id="_Path_8" data-name="&lt;Path&gt;" class="cls-12" d="M108.29,346.68h-6.78c-.4,0-.63-.11-.52-.25l1.9-2.36a1.38,1.38,0,0,1,.89-.25h6.48c.38,0,.61.11.52.25l-1.61,2.36A1.31,1.31,0,0,1,108.29,346.68Z" transform="translate(-26.25 -141.38)"/><path id="_Path_9" data-name="&lt;Path&gt;" class="cls-12" d="M117.35,346.68h-6.78c-.4,0-.65-.11-.56-.25l1.56-2.36a1.23,1.23,0,0,1,.86-.25h6.48c.38,0,.63.11.56.25l-1.26,2.36C118.14,346.57,117.75,346.68,117.35,346.68Z" transform="translate(-26.25 -141.38)"/><path id="_Path_10" data-name="&lt;Path&gt;" class="cls-12" d="M126.42,346.68h-6.78c-.4,0-.66-.11-.59-.25l1.21-2.36c.07-.14.44-.25.82-.25h6.48c.38,0,.65.11.59.25l-.92,2.36C127.19,346.57,126.82,346.68,126.42,346.68Z" transform="translate(-26.25 -141.38)"/><path id="_Path_11" data-name="&lt;Path&gt;" class="cls-12" d="M135.53,346.68h-6.78c-.4,0-.68-.11-.63-.25l.86-2.36c.05-.14.4-.25.78-.25h6.48c.38,0,.66.11.63.25l-.57,2.36C136.27,346.57,135.92,346.68,135.53,346.68Z" transform="translate(-26.25 -141.38)"/><path id="_Path_12" data-name="&lt;Path&gt;" class="cls-12" d="M144.59,346.68h-6.78c-.4,0-.7-.11-.67-.25l.52-2.36c0-.14.36-.25.74-.25h6.48c.38,0,.68.11.67.25l-.22,2.36C145.32,346.57,145,346.68,144.59,346.68Z" transform="translate(-26.25 -141.38)"/><path id="_Path_13" data-name="&lt;Path&gt;" class="cls-12" d="M153.66,346.68h-6.78c-.4,0-.71-.11-.7-.25l.17-2.36c0-.14.33-.25.71-.25h6.48c.38,0,.7.11.7.25l.12,2.36C154.37,346.57,154.05,346.68,153.66,346.68Z" transform="translate(-26.25 -141.38)"/><path id="_Path_14" data-name="&lt;Path&gt;" class="cls-12" d="M162.72,346.68h-6.78c-.4,0-.73-.11-.74-.25l-.17-2.36c0-.14.29-.25.67-.25h6.48c.38,0,.71.11.74.25l.47,2.36C163.42,346.57,163.11,346.68,162.72,346.68Z" transform="translate(-26.25 -141.38)"/><path id="_Path_15" data-name="&lt;Path&gt;" class="cls-12" d="M171.78,346.68H165c-.4,0-.75-.11-.78-.25l-.51-2.36c0-.14.25-.25.63-.25h6.48c.38,0,.73.11.78.25l.81,2.36C172.47,346.57,172.18,346.68,171.78,346.68Z" transform="translate(-26.25 -141.38)"/><path id="_Path_16" data-name="&lt;Path&gt;" class="cls-12" d="M181.28,346.68h-6.77c-.4,0-.76-.11-.81-.25l-.88-2.36c-.05-.14.22-.25.6-.25h6.48c.38,0,.74.11.81.25l1.17,2.36C181.95,346.57,181.68,346.68,181.28,346.68Z" transform="translate(-26.25 -141.38)"/><path id="_Path_17" data-name="&lt;Path&gt;" class="cls-12" d="M190.35,346.68h-6.77c-.4,0-.78-.11-.85-.25l-1.22-2.36c-.07-.14.18-.25.56-.25h6.48a1.21,1.21,0,0,1,.85.25l1.52,2.36C191,346.57,190.75,346.68,190.35,346.68Z" transform="translate(-26.25 -141.38)"/><path id="_Path_18" data-name="&lt;Path&gt;" class="cls-12" d="M199.42,346.68h-6.77a1.29,1.29,0,0,1-.89-.25l-1.56-2.36c-.09-.14.14-.25.52-.25h6.48a1.36,1.36,0,0,1,.89.25l1.86,2.36C200,346.57,199.82,346.68,199.42,346.68Z" transform="translate(-26.25 -141.38)"/><path id="_Path_19" data-name="&lt;Path&gt;" class="cls-12" d="M208.48,346.68h-6.77a1.45,1.45,0,0,1-.92-.25l-1.91-2.36c-.11-.14.11-.25.49-.25h6.48a1.53,1.53,0,0,1,.92.25l2.2,2.36C209.1,346.57,208.88,346.68,208.48,346.68Z" transform="translate(-26.25 -141.38)"/><path id="_Path_20" data-name="&lt;Path&gt;" class="cls-12" d="M217.55,346.68h-6.77a1.63,1.63,0,0,1-1-.25l-2.25-2.36c-.13-.14.07-.25.45-.25h6.48a1.71,1.71,0,0,1,1,.25l2.55,2.36C218.15,346.57,217.95,346.68,217.55,346.68Z" transform="translate(-26.25 -141.38)"/><path id="_Path_21" data-name="&lt;Path&gt;" class="cls-12" d="M91.21,349.55H79.9c-.42,0-.63-.11-.48-.25L82,346.93a1.81,1.81,0,0,1,1-.25H93.85c.4,0,.62.11.5.25L92.2,349.3A1.65,1.65,0,0,1,91.21,349.55Z" transform="translate(-26.25 -141.38)"/><path id="_Path_22" data-name="&lt;Path&gt;" class="cls-12" d="M100.52,349.55H93.41c-.42,0-.66-.11-.53-.25l2.1-2.36a1.56,1.56,0,0,1,.95-.25h6.82c.4,0,.64.11.53.25l-1.81,2.36A1.48,1.48,0,0,1,100.52,349.55Z" transform="translate(-26.25 -141.38)"/><path id="_Path_23" data-name="&lt;Path&gt;" class="cls-12" d="M110,349.55h-7.12c-.42,0-.67-.11-.57-.25l1.76-2.36a1.39,1.39,0,0,1,.91-.25h6.82c.4,0,.66.11.57.25L111,349.3A1.32,1.32,0,0,1,110,349.55Z" transform="translate(-26.25 -141.38)"/><path id="_Path_24" data-name="&lt;Path&gt;" class="cls-12" d="M119.56,349.55h-7.12c-.42,0-.69-.11-.61-.25l1.41-2.36a1.24,1.24,0,0,1,.88-.25h6.82c.4,0,.67.11.61.25l-1.12,2.36C120.37,349.44,120,349.55,119.56,349.55Z" transform="translate(-26.25 -141.38)"/><path id="_Path_25" data-name="&lt;Path&gt;" class="cls-12" d="M129.12,349.55H122c-.42,0-.71-.11-.64-.25l1.07-2.36c.06-.14.44-.25.84-.25h6.82c.4,0,.69.11.64.25L130,349.3C129.91,349.44,129.53,349.55,129.12,349.55Z" transform="translate(-26.25 -141.38)"/><path id="_Path_26" data-name="&lt;Path&gt;" class="cls-12" d="M138.63,349.55h-7.11c-.42,0-.72-.11-.68-.25l.72-2.36c0-.14.4-.25.8-.25h6.82c.4,0,.7.11.68.25l-.43,2.36C139.41,349.44,139.05,349.55,138.63,349.55Z" transform="translate(-26.25 -141.38)"/><path id="_Path_27" data-name="&lt;Path&gt;" class="cls-12" d="M148.15,349.55H141c-.42,0-.74-.11-.72-.25l.38-2.36c0-.14.36-.25.77-.25h6.82c.4,0,.72.11.72.25l-.08,2.36C148.91,349.44,148.57,349.55,148.15,349.55Z" transform="translate(-26.25 -141.38)"/><path id="_Path_28" data-name="&lt;Path&gt;" class="cls-12" d="M157.73,349.55h-7.11c-.42,0-.76-.11-.75-.25l0-2.36c0-.14.33-.25.73-.25h6.82c.4,0,.74.11.75.25l.26,2.36C158.47,349.44,158.15,349.55,157.73,349.55Z" transform="translate(-26.25 -141.38)"/><path id="_Path_29" data-name="&lt;Path&gt;" class="cls-12" d="M167.18,349.55h-7.11c-.42,0-.77-.11-.79-.25l-.31-2.36c0-.14.29-.25.69-.25h6.82c.4,0,.75.11.79.25l.61,2.36C167.91,349.44,167.6,349.55,167.18,349.55Z" transform="translate(-26.25 -141.38)"/><path id="_Path_30" data-name="&lt;Path&gt;" class="cls-12" d="M177.15,349.55H170c-.42,0-.79-.11-.83-.25l-.67-2.36c0-.14.25-.25.65-.25H176c.4,0,.77.11.83.25l1,2.36C177.86,349.44,177.57,349.55,177.15,349.55Z" transform="translate(-26.25 -141.38)"/><path id="_Path_31" data-name="&lt;Path&gt;" class="cls-12" d="M186.67,349.55h-7.11c-.42,0-.8-.11-.86-.25l-1-2.36c-.06-.14.22-.25.62-.25h6.82a1.19,1.19,0,0,1,.86.25l1.31,2.36C187.36,349.44,187.09,349.55,186.67,349.55Z" transform="translate(-26.25 -141.38)"/><path id="_Path_32" data-name="&lt;Path&gt;" class="cls-12" d="M196.19,349.55h-7.11a1.28,1.28,0,0,1-.9-.25l-1.36-2.36c-.08-.14.18-.25.58-.25h6.81a1.34,1.34,0,0,1,.9.25l1.66,2.36C196.87,349.44,196.61,349.55,196.19,349.55Z" transform="translate(-26.25 -141.38)"/><path id="_Path_33" data-name="&lt;Path&gt;" class="cls-12" d="M205.71,349.55H198.6a1.43,1.43,0,0,1-.94-.25l-1.7-2.36c-.1-.14.14-.25.54-.25h6.81a1.51,1.51,0,0,1,.94.25l2,2.36C206.37,349.44,206.12,349.55,205.71,349.55Z" transform="translate(-26.25 -141.38)"/><path id="_Path_34" data-name="&lt;Path&gt;" class="cls-12" d="M221,349.55H208a1.6,1.6,0,0,1-1-.25l-2-2.36c-.12-.14.11-.25.51-.25H218a1.79,1.79,0,0,1,1,.25l2.54,2.36C221.65,349.44,221.43,349.55,221,349.55Z" transform="translate(-26.25 -141.38)"/><path id="_Path_35" data-name="&lt;Path&gt;" class="cls-12" d="M82.62,358.73H69.68c-.48,0-.74-.11-.59-.25l2.59-2.36a2.09,2.09,0,0,1,1.11-.25H85.25c.46,0,.73.11.61.25l-2.15,2.36A1.92,1.92,0,0,1,82.62,358.73Z" transform="translate(-26.25 -141.38)"/><path id="_Path_36" data-name="&lt;Path&gt;" class="cls-12" d="M93.27,358.73H85.13c-.48,0-.77-.11-.64-.25l2.1-2.36a1.82,1.82,0,0,1,1.06-.25h7.85c.46,0,.75.11.64.25l-1.81,2.36A1.74,1.74,0,0,1,93.27,358.73Z" transform="translate(-26.25 -141.38)"/><path id="_Path_37" data-name="&lt;Path&gt;" class="cls-12" d="M104.15,358.73H96c-.48,0-.78-.11-.68-.25l1.76-2.36a1.64,1.64,0,0,1,1-.25H106c.46,0,.76.11.68.25l-1.46,2.36A1.56,1.56,0,0,1,104.15,358.73Z" transform="translate(-26.25 -141.38)"/><path id="_Path_38" data-name="&lt;Path&gt;" class="cls-12" d="M115,358.73H106.9c-.48,0-.8-.11-.72-.25l1.41-2.36a1.47,1.47,0,0,1,1-.25h7.84c.46,0,.78.11.72.25L116,358.48C116,358.62,115.52,358.73,115,358.73Z" transform="translate(-26.25 -141.38)"/><path id="_Path_39" data-name="&lt;Path&gt;" class="cls-12" d="M175.58,358.73l-57.31,0c-.45,0-.77-.11-.71-.25l1-2.33c.06-.14.46-.25.89-.25l55.23,0c.43,0,.82.11.87.25l.76,2.33C176.36,358.62,176,358.73,175.58,358.73Z" transform="translate(-26.25 -141.38)"/><path id="_Path_40" data-name="&lt;Path&gt;" class="cls-12" d="M186.73,358.73h-8.13c-.48,0-.91-.11-1-.25l-.86-2.36c-.05-.14.28-.25.74-.25h7.84c.46,0,.89.11,1,.25l1.15,2.36C187.54,358.62,187.2,358.73,186.73,358.73Z" transform="translate(-26.25 -141.38)"/><path id="_Path_41" data-name="&lt;Path&gt;" class="cls-12" d="M197.61,359.31h-8.13c-.48,0-.92-.11-1-.25l-1.2-2.36c-.07-.14.25-.25.71-.25h7.84a1.51,1.51,0,0,1,1,.25l1.49,2.36C198.41,359.19,198.09,359.31,197.61,359.31Z" transform="translate(-26.25 -141.38)"/><path id="_Path_42" data-name="&lt;Path&gt;" class="cls-12" d="M208.5,359.31h-8.13a1.6,1.6,0,0,1-1-.25l-1.54-2.36c-.09-.14.21-.25.67-.25h7.84a1.68,1.68,0,0,1,1,.25l1.84,2.36C209.28,359.19,209,359.31,208.5,359.31Z" transform="translate(-26.25 -141.38)"/><path id="_Path_43" data-name="&lt;Path&gt;" class="cls-12" d="M219.38,359.31h-8.13a1.78,1.78,0,0,1-1.07-.25l-1.89-2.36c-.11-.14.17-.25.63-.25h7.83a1.86,1.86,0,0,1,1.07.25l2.18,2.36C220.15,359.19,219.86,359.31,219.38,359.31Z" transform="translate(-26.25 -141.38)"/><path id="_Path_44" data-name="&lt;Path&gt;" class="cls-12" d="M230.3,359.31h-8.13a2,2,0,0,1-1.1-.25l-2.23-2.36c-.13-.14.14-.25.6-.25h7.83a2.06,2.06,0,0,1,1.1.25l2.53,2.36C231,359.19,230.78,359.31,230.3,359.31Z" transform="translate(-26.25 -141.38)"/><path id="_Path_45" data-name="&lt;Path&gt;" class="cls-12" d="M94.14,352.42H76.39c-.44,0-.67-.11-.52-.25l2.58-2.35a1.9,1.9,0,0,1,1-.25h17c.42,0,.67.11.55.25l-2,2.36A1.63,1.63,0,0,1,94.14,352.42Z" transform="translate(-26.25 -141.38)"/><path id="_Path_46" data-name="&lt;Path&gt;" class="cls-12" d="M103.92,352.42H96.46c-.44,0-.7-.11-.59-.25l1.9-2.36a1.54,1.54,0,0,1,1-.25h7.16c.42,0,.68.11.59.25l-1.61,2.36A1.47,1.47,0,0,1,103.92,352.42Z" transform="translate(-26.25 -141.38)"/><path id="_Path_47" data-name="&lt;Path&gt;" class="cls-12" d="M113.88,352.42h-7.45c-.44,0-.72-.11-.63-.25l1.56-2.36a1.38,1.38,0,0,1,.93-.25h7.16c.42,0,.7.11.63.25l-1.26,2.36C114.74,352.31,114.32,352.42,113.88,352.42Z" transform="translate(-26.25 -141.38)"/><path id="_Path_48" data-name="&lt;Path&gt;" class="cls-12" d="M123.9,352.42h-7.45c-.44,0-.73-.11-.66-.25L117,349.8c.07-.14.47-.25.89-.25H125c.42,0,.72.11.66.25l-.92,2.36C124.73,352.31,124.33,352.42,123.9,352.42Z" transform="translate(-26.25 -141.38)"/><path id="_Path_49" data-name="&lt;Path&gt;" class="cls-12" d="M133.86,352.42h-7.45c-.44,0-.75-.11-.7-.25l.87-2.36c.05-.14.43-.25.85-.25h7.16c.42,0,.73.11.7.25l-.57,2.36C134.68,352.31,134.3,352.42,133.86,352.42Z" transform="translate(-26.25 -141.38)"/><path id="_Path_50" data-name="&lt;Path&gt;" class="cls-12" d="M143.83,352.42h-7.45c-.44,0-.77-.11-.74-.25l.52-2.36c0-.14.4-.25.82-.25h7.16c.42,0,.75.11.74.25l-.23,2.36C144.64,352.31,144.27,352.42,143.83,352.42Z" transform="translate(-26.25 -141.38)"/><path id="_Path_51" data-name="&lt;Path&gt;" class="cls-12" d="M153.8,353h-7.45c-.44,0-.78-.11-.77-.25l.18-2.36c0-.14.36-.25.78-.25h7.16c.42,0,.77.11.77.25l.12,2.36C154.59,352.88,154.24,353,153.8,353Z" transform="translate(-26.25 -141.38)"/><path id="_Path_52" data-name="&lt;Path&gt;" class="cls-12" d="M163.76,353h-7.45c-.44,0-.8-.11-.81-.25l-.17-2.36c0-.14.32-.25.74-.25h7.15c.42,0,.78.11.81.25l.46,2.36C164.53,352.88,164.2,353,163.76,353Z" transform="translate(-26.25 -141.38)"/><path id="_Path_53" data-name="&lt;Path&gt;" class="cls-12" d="M173.73,353h-7.45c-.44,0-.82-.11-.85-.25l-.51-2.36c0-.14.29-.25.71-.25h7.15c.42,0,.8.11.85.25l.81,2.36C174.48,352.88,174.17,353,173.73,353Z" transform="translate(-26.25 -141.38)"/><path id="_Path_54" data-name="&lt;Path&gt;" class="cls-12" d="M183.7,353h-7.45c-.44,0-.83-.11-.88-.25l-.85-2.36c-.05-.14.25-.25.67-.25h7.15c.42,0,.82.11.88.25l1.15,2.36C184.44,352.88,184.14,353,183.7,353Z" transform="translate(-26.25 -141.38)"/><path id="_Path_55" data-name="&lt;Path&gt;" class="cls-12" d="M193.67,353h-7.45c-.44,0-.85-.11-.92-.25l-1.2-2.36c-.07-.14.21-.25.63-.25h7.15a1.35,1.35,0,0,1,.92.25l1.49,2.36C194.39,352.88,194.11,353,193.67,353Z" transform="translate(-26.25 -141.38)"/><path id="_Path_56" data-name="&lt;Path&gt;" class="cls-12" d="M203.64,353h-7.45a1.44,1.44,0,0,1-1-.25l-1.54-2.36c-.09-.14.18-.25.6-.25h7.15a1.51,1.51,0,0,1,1,.25l1.84,2.36C204.34,352.88,204.07,353,203.64,353Z" transform="translate(-26.25 -141.38)"/><path id="_Path_57" data-name="&lt;Path&gt;" class="cls-12" d="M213.61,353h-7.44a1.6,1.6,0,0,1-1-.25l-1.89-2.36c-.11-.14.14-.25.56-.25H211a1.68,1.68,0,0,1,1,.25l2.18,2.36C214.29,352.88,214,353,213.61,353Z" transform="translate(-26.25 -141.38)"/><path id="_Path_58" data-name="&lt;Path&gt;" class="cls-12" d="M223.62,353h-7.44a1.79,1.79,0,0,1-1-.25l-2.23-2.36c-.13-.14.1-.25.52-.25h7.15a1.87,1.87,0,0,1,1,.25l2.53,2.36C224.29,352.88,224.05,353,223.62,353Z" transform="translate(-26.25 -141.38)"/><path id="_Path_59" data-name="&lt;Path&gt;" class="cls-12" d="M97.72,355.86l-24.92,0c-.46,0-.7-.11-.55-.25l2.58-2.35A2,2,0,0,1,75.9,353l24,0c.44,0,.71.11.61.25l-1.75,2.35A1.62,1.62,0,0,1,97.72,355.86Z" transform="translate(-26.25 -141.38)"/><path id="_Path_60" data-name="&lt;Path&gt;" class="cls-12" d="M107.7,355.86H99.9c-.46,0-.75-.11-.65-.25l1.71-2.36a1.53,1.53,0,0,1,1-.25h7.5c.44,0,.73.11.65.25l-1.41,2.36A1.46,1.46,0,0,1,107.7,355.86Z" transform="translate(-26.25 -141.38)"/><path id="_Path_61" data-name="&lt;Path&gt;" class="cls-12" d="M118.17,355.86h-7.8c-.46,0-.76-.11-.68-.25l1.36-2.36A1.36,1.36,0,0,1,112,353h7.5c.44,0,.75.11.68.25l-1.07,2.36C119,355.75,118.63,355.86,118.17,355.86Z" transform="translate(-26.25 -141.38)"/><path id="_Path_62" data-name="&lt;Path&gt;" class="cls-12" d="M128.6,355.86h-7.8c-.46,0-.78-.11-.72-.25l1-2.36c.06-.14.47-.25.91-.25h7.5c.44,0,.76.11.72.25l-.72,2.36C129.46,355.75,129.05,355.86,128.6,355.86Z" transform="translate(-26.25 -141.38)"/><path id="_Path_63" data-name="&lt;Path&gt;" class="cls-12" d="M139,355.86h-7.79c-.46,0-.8-.11-.76-.25l.67-2.36c0-.14.43-.25.87-.25h7.5c.44,0,.78.11.76.25l-.38,2.36C139.87,355.75,139.48,355.86,139,355.86Z" transform="translate(-26.25 -141.38)"/><path id="_Path_64" data-name="&lt;Path&gt;" class="cls-12" d="M149,355.86h-7.79c-.46,0-.81-.11-.79-.25l.33-2.36c0-.14.39-.25.83-.25h7.5c.44,0,.8.11.79.25l0,2.36C149.83,355.75,149.46,355.86,149,355.86Z" transform="translate(-26.25 -141.38)"/><path id="_Path_65" data-name="&lt;Path&gt;" class="cls-12" d="M160.21,355.86h-7.79c-.46,0-.83-.11-.83-.25l0-2.36c0-.14.36-.25.8-.25h7.5c.44,0,.81.11.83.25l.31,2.36C161,355.75,160.67,355.86,160.21,355.86Z" transform="translate(-26.25 -141.38)"/><path id="_Path_66" data-name="&lt;Path&gt;" class="cls-12" d="M170.3,355.86h-7.79c-.46,0-.85-.11-.87-.25l-.36-2.36c0-.14.32-.25.76-.25h7.5c.44,0,.83.11.87.25l.66,2.36C171.1,355.75,170.76,355.86,170.3,355.86Z" transform="translate(-26.25 -141.38)"/><path id="_Path_67" data-name="&lt;Path&gt;" class="cls-12" d="M180.73,355.86h-7.79c-.46,0-.86-.11-.9-.25l-.71-2.36c0-.14.28-.25.72-.25h7.5c.44,0,.85.11.9.25l1,2.36C181.51,355.75,181.19,355.86,180.73,355.86Z" transform="translate(-26.25 -141.38)"/><path id="_Path_68" data-name="&lt;Path&gt;" class="cls-12" d="M191.16,355.86h-7.79c-.46,0-.88-.11-.94-.25l-1.05-2.36c-.06-.14.25-.25.69-.25h7.5a1.36,1.36,0,0,1,.94.25l1.35,2.36C191.93,355.75,191.62,355.86,191.16,355.86Z" transform="translate(-26.25 -141.38)"/><path id="_Path_69" data-name="&lt;Path&gt;" class="cls-12" d="M201.59,355.86H193.8a1.45,1.45,0,0,1-1-.25l-1.4-2.36c-.08-.14.21-.25.65-.25h7.49a1.52,1.52,0,0,1,1,.25l1.69,2.36C202.34,355.75,202,355.86,201.59,355.86Z" transform="translate(-26.25 -141.38)"/><path id="_Path_70" data-name="&lt;Path&gt;" class="cls-12" d="M212,355.86h-7.79a1.62,1.62,0,0,1-1-.25l-1.74-2.36c-.1-.14.17-.25.61-.25h7.49a1.69,1.69,0,0,1,1,.25l2,2.36C212.75,355.75,212.48,355.86,212,355.86Z" transform="translate(-26.25 -141.38)"/><path id="_Path_71" data-name="&lt;Path&gt;" class="cls-12" d="M227.09,355.86H214.58a1.79,1.79,0,0,1-1-.25l-2.08-2.36c-.12-.14.13-.25.57-.25h12a2,2,0,0,1,1.06.25l2.52,2.36C227.79,355.75,227.54,355.86,227.09,355.86Z" transform="translate(-26.25 -141.38)"/><path id="_Path_72" data-name="&lt;Path&gt;" class="cls-15" d="M259.14,370.51c-.56.51-2.33.85-4.85.85l-208.33-.17c-2.51,0-4.27-.34-4.83-.85-.85.88,1.22,1.58,4.83,1.59l208.33.17C257.9,372.1,260,371.4,259.14,370.51Z" transform="translate(-26.25 -141.38)"/><path class="cls-16" d="M128.72,254.15c13,1.24,35.12,4.08,41.36,6.93.62,13.55,1.07,76.41,1.07,76.41H130.67S129,268,128.72,254.15Z" transform="translate(-26.25 -141.38)"/><path class="cls-17" d="M150.43,294.12c5.87-11,12.28-26.54,14.57-34.86-8.68-2.13-20.51-3.67-29.66-4.67C136.73,260,142.91,280.09,150.43,294.12Z" transform="translate(-26.25 -141.38)"/><path class="cls-18" d="M150.36,289.67c4.61-8.19,11.68-27.84,13.06-30.81a259.75,259.75,0,0,0-26.24-4.06C138.36,257.62,143.23,275.88,150.36,289.67Z" transform="translate(-26.25 -141.38)"/><path class="cls-18" d="M149.86,261.72c-4.86,0-6.89-3.91-6.89-7V244.51h13.78v13.73C156.75,261.14,154.72,261.72,149.86,261.72Z" transform="translate(-26.25 -141.38)"/><path class="cls-19" d="M156.75,253.45v-8.94H143v8.91A23.13,23.13,0,0,0,156.75,253.45Z" transform="translate(-26.25 -141.38)"/><path class="cls-18" d="M136.8,232c1.2,3.1,1.17,5.5-.85,6.39s-6.41-.28-7.6-3.39-.53-6.35,1.5-7.25S135.6,228.88,136.8,232Z" transform="translate(-26.25 -141.38)"/><path class="cls-18" d="M131.8,235.67c1.63,10.63,9.21,17.77,19.91,16.83,9.73-.86,16.46-14.46,16.73-26.87s-6.38-22.22-18.12-22C132.32,203.87,128.36,213.26,131.8,235.67Z" transform="translate(-26.25 -141.38)"/><path class="cls-18" d="M162.7,231c-1.24,3.09-1.24,5.48.77,6.41s6.41-.2,7.65-3.3.61-6.35-1.41-7.27S163.93,227.9,162.7,231Z" transform="translate(-26.25 -141.38)"/><path class="cls-20" d="M147.12,229.87c2.85-.57,5.25-.1,5.79,2s-2.35,3.4-4.72,3.68S144.9,230.32,147.12,229.87Z" transform="translate(-26.25 -141.38)"/><path class="cls-21" d="M145.86,230.27a7.72,7.72,0,0,1,3.47-.89,4.64,4.64,0,0,1,3.57,1.32,2.25,2.25,0,0,1,.45,2.14,3.36,3.36,0,0,1-1.2,1.6,7.51,7.51,0,0,1-3.33,1.36,15.23,15.23,0,0,0,2.75-2c.78-.77,1.09-1.73.48-2.36a4.47,4.47,0,0,0-2.76-1.17A15.89,15.89,0,0,0,145.86,230.27Z" transform="translate(-26.25 -141.38)"/><path class="cls-22" d="M145.87,222.16c.26,2,1.36,7.69-4.14,8.15s-4.19-6.19-4.19-6.19A71.53,71.53,0,0,1,145.87,222.16Z" transform="translate(-26.25 -141.38)"/><circle class="cls-23" cx="143.32" cy="229.56" r="0.75" transform="translate(-141.13 169.2) rotate(-75.44)"/><path class="cls-24" d="M144.69,221.81c-6.31.44-9.77,2.95-5.76,2.91S148.84,221.53,144.69,221.81Z" transform="translate(-26.25 -141.38)"/><path class="cls-25" d="M152.06,222.16c-.26,2-1.36,7.69,4.14,8.15s4.19-6.19,4.19-6.19A71.54,71.54,0,0,0,152.06,222.16Z" transform="translate(-26.25 -141.38)"/><circle class="cls-23" cx="154.61" cy="229.56" r="0.75" transform="translate(-78.97 -95.16) rotate(-14.55)"/><path class="cls-24" d="M153.24,221.81c6.31.44,9.77,2.95,5.76,2.91S149.08,221.53,153.24,221.81Z" transform="translate(-26.25 -141.38)"/><ellipse class="cls-26" cx="109.84" cy="90.39" rx="2.45" ry="0.77"/><ellipse class="cls-26" cx="135.7" cy="90.39" rx="2.45" ry="0.77"/><path class="cls-27" d="M143.72,240.53a3.49,3.49,0,0,0,1,2.66,5,5,0,0,0,2.37,1.44,11.21,11.21,0,0,0,2.9.38c.5,0,1,0,1.53,0s1-.09,1.57-.09c-.47.24-1,.43-1.47.63a14.59,14.59,0,0,1-1.57.37,8,8,0,0,1-3.29-.18,4.87,4.87,0,0,1-2.74-2,4.16,4.16,0,0,1-.62-1.58A2.26,2.26,0,0,1,143.72,240.53Z" transform="translate(-26.25 -141.38)"/><path class="cls-24" d="M169.78,217.19A35,35,0,0,1,170,224c-.34,2.31-2.26,11-2.26,11s1.31-13.21,0-16.59a14.6,14.6,0,0,1-2,10.07c.4-8.35-3.38-12.44-3.38-12.44s1.45,4.44.94,6c-1.59-4.26-7.94-10-17-5.56,6.78,0,5.05,3.82,5.05,3.82s.43-2.31-4.33-1.88-12,2.89-14.83-1.08a29.66,29.66,0,0,0-.95,7A92.28,92.28,0,0,0,131.6,235c-3.77-4.46-4.31-8.87-4.64-15.71-.46,4.07-2.76,3-2.76,3s2.3-.53,1.77-4.34.79-8.87,4.34-10.59c0,0,1-8.16,7.7-10.62s17.36.34,19.62-.25,2.68-1.68,2.68-1.68A2.34,2.34,0,0,1,159.1,197a4.07,4.07,0,0,1-2.39.83s5,.9,8.12,3.5A17.39,17.39,0,0,1,170.92,214a20.17,20.17,0,0,0,.79,5.65S170.29,219.61,169.78,217.19Z" transform="translate(-26.25 -141.38)"/><path class="cls-24" d="M144.19,216.65c.67.64,10.73-1.2,13.57,1.44a10,10,0,0,0-8.12-3.68A7,7,0,0,0,144.19,216.65Z" transform="translate(-26.25 -141.38)"/><path class="cls-16" d="M163.06,201.94a96.55,96.55,0,0,0-29.85,0V188.28a62.21,62.21,0,0,1,29.85,0Z" transform="translate(-26.25 -141.38)"/><polygon class="cls-16" points="154.04 47 121.9 35.27 121.9 36.32 154.04 48.05 154.04 47"/><polygon class="cls-9" points="89.75 47 121.9 35.27 121.9 36.32 89.75 48.05 89.75 47"/><path class="cls-18" d="M100.41,197.08c1.57,11.69,3.75,23.19,5,32.76.8,6.05-10,10.88-11.38,1.41s-2.5-27.58-2.61-31.66S99.75,192.15,100.41,197.08Z" transform="translate(-26.25 -141.38)"/><path class="cls-28" d="M78.26,212.16c0,2.75-1.24,3.75-4.81,3s-7.08-4.2-6.78-7.52c.22-2.41,2.21-2.92,3.83-2.64S78.25,207,78.26,212.16Z" transform="translate(-26.25 -141.38)"/><path class="cls-29" d="M67.71,211.27a5.23,5.23,0,0,1-.85-1.59,3.29,3.29,0,0,1-.11-1.88,2,2,0,0,1,1.46-1.33,4.63,4.63,0,0,1,1.92,0A8.09,8.09,0,0,1,75.88,211a3.69,3.69,0,0,1,.36,2,1.34,1.34,0,0,1-.78,1,2,2,0,0,1-1.14.09,7,7,0,0,1-3.3-1.84,7.74,7.74,0,0,1-1.2-1.43,4.29,4.29,0,0,1-.44-.86,1.09,1.09,0,0,1,.1-1.12,1,1,0,0,1,1.08-.09,3.07,3.07,0,0,1,.81.48,4.9,4.9,0,0,1,1.17,1.37,5.88,5.88,0,0,0-1.33-1.16,2.76,2.76,0,0,0-.77-.33c-.25-.08-.56-.05-.61.07a.7.7,0,0,0,.07.58,3.74,3.74,0,0,0,.43.7,7.05,7.05,0,0,0,1.19,1.21,6.88,6.88,0,0,0,2.93,1.49,1.18,1.18,0,0,0,.61,0,.36.36,0,0,0,.21-.34,2.86,2.86,0,0,0-.31-1.43,7.76,7.76,0,0,0-5-4.16,4,4,0,0,0-1.62-.11,1.48,1.48,0,0,0-1.14.88A4.26,4.26,0,0,0,67.71,211.27Z" transform="translate(-26.25 -141.38)"/><path class="cls-30" d="M72.35,202.71s-2.9,1.65-4.33,2.62c3.94-.16,9.09,3.13,10.15,7.87C79.65,210.5,76.23,204.76,72.35,202.71Z" transform="translate(-26.25 -141.38)"/><path class="cls-31" d="M96.15,199.4c-2.28,1-6.54.12-7.42-1,.54-2.25,4.34-5.35,4.34-5.35Z" transform="translate(-26.25 -141.38)"/><path class="cls-32" d="M77.72,214.47c.75-1.86,1-8.17-8.84-13.25,3.88-1.81,14.43-8.54,18.58-12.88A78.27,78.27,0,0,0,95,179.69c1.72-2.3,9.63-15.05,9.63-15.05,4.09-.76,9.2,7.19,7,10.49a146.44,146.44,0,0,0-16.47,16.11C87.09,200.54,77.72,214.47,77.72,214.47Z" transform="translate(-26.25 -141.38)"/><path class="cls-33" d="M83.12,192.1a40.06,40.06,0,0,0,4.34-3.76A78.88,78.88,0,0,0,94.71,180a11.37,11.37,0,0,1,5.62,5.55c-1.85,1.9-3.66,3.85-5.22,5.65-2.31,2.68-4.73,5.75-7,8.75A11,11,0,0,0,83.12,192.1Z" transform="translate(-26.25 -141.38)"/><path class="cls-31" d="M90,183.26c.18-.6,1-2.66,2.32-3.09s2.71.36,3.69,2.2c.82,1.55,1,3.21-.26,4.29a1.53,1.53,0,0,1-2.11-.26Z" transform="translate(-26.25 -141.38)"/><path class="cls-34" d="M87.48,185.37c.7-1.21,1.9-2.66,3.36-2.42a5.91,5.91,0,0,1,3.72,3.21,2.12,2.12,0,0,1-1,3,3,3,0,0,1-1.68,0Z" transform="translate(-26.25 -141.38)"/><path class="cls-35" d="M84.72,188a4.56,4.56,0,0,1,1.6-2.71,2.19,2.19,0,0,1,2.49.15c.64.42,2.87,2.06,3.5,3.39a2,2,0,0,1-.52,2.55,2.62,2.62,0,0,1-2.38,0Z" transform="translate(-26.25 -141.38)"/><path class="cls-34" d="M83.79,191.63a13.76,13.76,0,0,0,2.68,1.88c1.05.56,2.16.85,2.93.09,1-1,.51-2.36-.36-3.45-1.1-1.39-3.58-2.72-4.91-2.17a2.73,2.73,0,0,0-1.43,1.16,3.51,3.51,0,0,0,.16,3.17C83.23,192.06,83.79,191.63,83.79,191.63Z" transform="translate(-26.25 -141.38)"/><path class="cls-18" d="M101.07,190.19c-.21-.88-.59-2.46-.74-3.27-.23-1.2-.48-1.09-1.67-1.25a37.47,37.47,0,0,1-5-1c-.68-.15-2.64-.56-2.33,2,.18,1.55,3.31,2.74,3.31,2.74s-3.2,4.43-1.45,7.71,5.33,3.52,7.19.51C102,195,101.57,192.28,101.07,190.19Z" transform="translate(-26.25 -141.38)"/><path class="cls-16" d="M135.38,254.92s-13.62-7.56-22.67-12.89c-8.78-5.17-17,4.18-13.35,8.71,6,7.47,31.47,26.33,31.47,26.33Z" transform="translate(-26.25 -141.38)"/><path class="cls-16" d="M164,282.81s6,16.67,11.66,29.5c4.66,10.62,16.12,2.26,14.27-5.63-3.35-14.26-19.84-45.88-19.84-45.88Z" transform="translate(-26.25 -141.38)"/><path class="cls-16" d="M102.49,199.66c-1.26,3.5-10,7.64-12.47,5.25,2.18,31.9,7.63,43.66,9.34,45.82,1.84,2.34,14.92-2.13,13.78-7.92C111,232.1,104.25,207.72,102.49,199.66Z" transform="translate(-26.25 -141.38)"/><path class="cls-32" d="M160.38,258.22c-3.5,8.22-17.94,8.45-20.13-3.09l-3.08-.34c1.18,2.82,6,21.08,13.18,34.87,4.61-8.19,11.68-27.84,13.06-30.81C162.48,258.65,161.46,258.44,160.38,258.22Z" transform="translate(-26.25 -141.38)"/><path class="cls-16" d="M175.18,308.4s1.5,22.59,1.6,29.09h14.09c-.1-12.67-.24-26.8-.95-30.11S175.18,308.4,175.18,308.4Z" transform="translate(-26.25 -141.38)"/><circle class="cls-36" cx="226.36" cy="147.9" r="0.86"/><circle class="cls-36" cx="238.7" cy="165.4" r="3.44"/><circle class="cls-36" cx="237.26" cy="154.21" r="1.43"/><circle class="cls-36" cx="235.26" cy="132.69" r="1.15"/><circle class="cls-36" cx="22.89" cy="178.03" r="1.72"/><circle class="cls-36" cx="2.8" cy="192.38" r="2.3"/><circle class="cls-36" cx="25.47" cy="207.02" r="1.43"/><polygon class="cls-32" points="40.86 86.92 42.56 90.35 46.35 90.91 43.6 93.58 44.25 97.36 40.86 95.57 37.47 97.36 38.12 93.58 35.37 90.91 39.16 90.35 40.86 86.92"/><polygon class="cls-32" points="37.34 113.92 37.76 114.76 38.68 114.9 38.01 115.55 38.17 116.47 37.34 116.04 36.52 116.47 36.67 115.55 36.01 114.9 36.93 114.76 37.34 113.92"/><polygon class="cls-32" points="191.02 82.65 192.03 84.7 194.29 85.03 192.65 86.62 193.04 88.88 191.02 87.81 188.99 88.88 189.38 86.62 187.74 85.03 190 84.7 191.02 82.65"/><polygon class="cls-32" points="160.9 66.71 161.75 68.43 163.65 68.71 162.27 70.05 162.6 71.94 160.9 71.05 159.2 71.94 159.52 70.05 158.15 68.71 160.05 68.43 160.9 66.71"/><polygon class="cls-32" points="210.8 107.92 212.07 110.5 214.92 110.92 212.86 112.92 213.35 115.76 210.8 114.42 208.26 115.76 208.74 112.92 206.68 110.92 209.53 110.5 210.8 107.92"/></svg>